<svg xmlns:dc="http://purl.org/dc/elements/1.1/" xmlns:cc="http://creativecommons.org/ns#" xmlns:rdf="http://www.w3.org/1999/02/22-rdf-syntax-ns#" xmlns:svg="http://www.w3.org/2000/svg" xmlns="http://www.w3.org/2000/svg" xmlns:sodipodi="http://sodipodi.sourceforge.net/DTD/sodipodi-0.dtd" xmlns:inkscape="http://www.inkscape.org/namespaces/inkscape" version="1.1" viewBox="0 0 12.699995 15.87499375" x="0px" y="0px"><path style="font-variation-settings:normal;vector-effect:none;" d="M -4.8128979e-6,-1.9717954e-6 H 12.69999 V 12.699993 H -4.8128979e-6 Z" fill="none" stroke="none" stop-color="#000000"/><path style="color:#000000;font-variant-ligatures:normal;font-variant-position:normal;font-variant-caps:normal;font-variant-numeric:normal;font-variant-alternates:normal;font-variant-east-asian:normal;font-feature-settings:normal;font-variation-settings:normal;text-indent:0;text-decoration-line:none;text-decoration-style:solid;text-decoration-color:#000000;text-transform:none;direction:ltr;text-orientation:mixed;dominant-baseline:auto;baseline-shift:baseline;white-space:normal;shape-padding:0;shape-margin:0;inline-size:0;isolation:auto;mix-blend-mode:normal;color-interpolation:sRGB;color-interpolation-filters:linearRGB;solid-color:#000000;solid-opacity:1;vector-effect:none;color-rendering:auto;image-rendering:auto;shape-rendering:auto;enable-background:accumulate;" d="M 2.1384692,6.6531635 A 0.26461002,0.26460993 0 0 0 1.8754387,6.9185899 v 3.6418391 a 0.26461002,0.26460993 0 0 0 0.2630305,0.265426 H 5.7803107 A 0.26461002,0.26460993 0 0 0 6.0457408,10.560429 V 6.9185899 A 0.26461002,0.26460993 0 0 0 5.7803107,6.6531635 Z M 2.4038993,7.1840163 H 5.5172802 V 10.297395 H 2.4038993 Z" clip-rule="nonzero" display="inline" overflow="visible" visibility="visible" fill="#000000" fill-opacity="1" fill-rule="evenodd" stroke="none" stop-color="#000000"/><path style="color:#000000;font-variant-ligatures:normal;font-variant-position:normal;font-variant-caps:normal;font-variant-numeric:normal;font-variant-alternates:normal;font-variant-east-asian:normal;font-feature-settings:normal;font-variation-settings:normal;text-indent:0;text-decoration-line:none;text-decoration-style:solid;text-decoration-color:#000000;text-transform:none;direction:ltr;text-orientation:mixed;dominant-baseline:auto;baseline-shift:baseline;white-space:normal;shape-padding:0;shape-margin:0;inline-size:0;isolation:auto;mix-blend-mode:normal;color-interpolation:sRGB;color-interpolation-filters:linearRGB;solid-color:#000000;solid-opacity:1;vector-effect:none;color-rendering:auto;image-rendering:auto;shape-rendering:auto;enable-background:accumulate;" d="M 2.1384692,1.8754906 A 0.26461002,0.26460993 0 0 0 1.8730513,2.1385259 V 5.780365 A 0.26461002,0.26460993 0 0 0 2.1384692,6.0457914 H 5.7803107 A 0.26461002,0.26460993 0 0 0 6.0457408,5.780365 V 2.1385259 A 0.26461002,0.26460993 0 0 0 5.7803107,1.8754906 Z M 2.4038993,2.4039523 H 5.5172802 V 5.5173309 H 2.4038993 Z" clip-rule="nonzero" display="inline" overflow="visible" visibility="visible" fill="#000000" fill-opacity="1" fill-rule="evenodd" stroke="none" stop-color="#000000"/><path style="color:#000000;font-variant-ligatures:normal;font-variant-position:normal;font-variant-caps:normal;font-variant-numeric:normal;font-variant-alternates:normal;font-variant-east-asian:normal;font-feature-settings:normal;font-variation-settings:normal;text-indent:0;text-decoration-line:none;text-decoration-style:solid;text-decoration-color:#000000;text-transform:none;direction:ltr;text-orientation:mixed;dominant-baseline:auto;baseline-shift:baseline;white-space:normal;shape-padding:0;shape-margin:0;inline-size:0;isolation:auto;mix-blend-mode:normal;color-interpolation:sRGB;color-interpolation-filters:linearRGB;solid-color:#000000;solid-opacity:1;vector-effect:none;color-rendering:auto;image-rendering:auto;shape-rendering:auto;enable-background:accumulate;" d="M 6.9185384,6.6531635 A 0.26461002,0.26460993 0 0 0 6.6531082,6.9185899 v 3.6418391 a 0.26461002,0.26460993 0 0 0 0.2654302,0.265426 H 10.56038 a 0.26461002,0.26460993 0 0 0 0.26543,-0.265426 V 6.9185899 A 0.26461002,0.26460993 0 0 0 10.56038,6.6531635 Z M 7.1839686,7.1840163 H 10.297349 V 10.297395 H 7.1839686 Z" clip-rule="nonzero" display="inline" overflow="visible" visibility="visible" fill="#000000" fill-opacity="1" fill-rule="evenodd" stroke="none" stop-color="#000000"/><path style="color:#000000;font-variant-ligatures:normal;font-variant-position:normal;font-variant-caps:normal;font-variant-numeric:normal;font-variant-alternates:normal;font-variant-east-asian:normal;font-feature-settings:normal;font-variation-settings:normal;text-indent:0;text-decoration-line:none;text-decoration-style:solid;text-decoration-color:#000000;text-transform:none;direction:ltr;text-orientation:mixed;dominant-baseline:auto;baseline-shift:baseline;white-space:normal;shape-padding:0;shape-margin:0;inline-size:0;isolation:auto;mix-blend-mode:normal;color-interpolation:sRGB;color-interpolation-filters:linearRGB;solid-color:#000000;solid-opacity:1;vector-effect:none;color-rendering:auto;image-rendering:auto;shape-rendering:auto;enable-background:accumulate;" d="M 6.9185384,2.509167 A 0.26461002,0.26460993 0 0 0 6.6531082,2.7745922 V 5.780365 A 0.26461002,0.26460993 0 0 0 6.9185384,6.0457914 H 9.9267021 A 0.26461002,0.26460993 0 0 0 10.192132,5.780365 V 2.7745922 A 0.26461002,0.26460993 0 0 0 9.9267021,2.509167 Z M 7.1839686,3.0376275 H 9.6612719 V 5.5173309 H 7.1839686 Z" clip-rule="nonzero" display="inline" overflow="visible" visibility="visible" fill="#000000" fill-opacity="1" fill-rule="evenodd" stroke="none" stop-color="#000000"/></svg>