<svg xmlns="http://www.w3.org/2000/svg" version="1.1" viewBox="-5.0 -10.0 110.0 135.0">
 <path d="m38.402 9.2422h23.191v0.003906c0.80078 0.019531 1.4453 0.55469 1.4453 1.2148 0 0.007812-0.007812 5.5156-0.007812 5.5156h-26.07v-5.5156c0-0.66016 0.64062-1.1953 1.4414-1.2188zm45.992 10.621v0.003907c0.78906 0.023437 1.4258 0.67969 1.4258 1.4883 0 0.003906-0.046874 4.5703-0.046874 4.5703v0.003907l-71.551-0.003907v-4.5703c0-0.80859 0.64453-1.4648 1.4453-1.4922zm-51.387 24.156c-1.0742 0-1.9453 0.87109-1.9453 1.9453v23.352c0 1.0742 0.87109 1.9453 1.9453 1.9453 1.0742 0 1.9453-0.87109 1.9453-1.9453v-23.352c0-1.0742-0.87109-1.9453-1.9453-1.9453zm33.98 0v0.003907h-0.007812c-1.0703 0-1.9375 0.86719-1.9375 1.9414v23.352c0 1.0742 0.87109 1.9453 1.9453 1.9453s1.9453-0.87109 1.9453-1.9453v-23.352c0-1.0742-0.87109-1.9453-1.9453-1.9453zm-16.988-2.5859h-0.003906c-1.0742 0-1.9414 0.87109-1.9414 1.9453v28.523c0 1.0742 0.87109 1.9453 1.9453 1.9453s1.9414-0.87109 1.9414-1.9453v-28.523c0-1.0742-0.86719-1.9453-1.9414-1.9453zm-20.902 41.457c-1.0742 0-1.9414 0.87109-1.9414 1.9453 0 1.0742 0.86719 1.9453 1.9414 1.9453h41.801c1.0742 0 1.9453-0.87109 1.9453-1.9453 0-1.0742-0.87109-1.9453-1.9453-1.9453zm-10.414-53.074h62.637v0.003906c0.042969 58.711 0.042969 58.723 0.042969 58.723 0 0.80859-0.63672 1.4648-1.4297 1.4922h-59.812c-0.80078-0.027344-1.4414-0.68359-1.4414-1.4922 0-0.007813 0.003906-58.727 0.003906-58.727zm42.93-23.75h-23.23v0.003906c-2.9297 0.023438-5.2969 1.9648-5.3125 4.3633v5.543h-17.422c-2.9297 0.035157-5.2969 2.4102-5.3125 5.3438v6.5508c0 1.0742 0.87109 1.9453 1.9453 1.9453h2.5078v58.762c0.019532 2.9336 2.3828 5.3086 5.3125 5.3438h59.852c2.8984-0.035156 5.2383-2.4102 5.2539-5.3438v-58.762h2.5117c0.51562 0 1.0078-0.20312 1.375-0.57031 0.36328-0.36328 0.56641-0.85938 0.56641-1.375v-6.5508c-0.015625-2.9336-2.3516-5.3086-5.2461-5.3438h-17.488v-5.543c-0.015625-2.3984-2.3828-4.3398-5.3125-4.3672z"/>
</svg>