<svg xmlns="http://www.w3.org/2000/svg" version="1.1" viewBox="-5.0 -10.0 110.0 135.0">
 <path fill="#3B3C4A" d="m52.363 53.102 1.1523-6.9141v-0.003906c-1.625 0.10156-3.2188 0.5-4.6992 1.1719-0.96875 0.46484-2.5234 1.4336-2.5234 2.6719 0.078125 0.67969 0.47656 1.2852 1.0742 1.6211 1.5039 0.92187 3.2305 1.4219 4.9961 1.4531zm3.1367 2.5586h-0.003906c3.2227-2.5977 4.1875-7.0938 2.3125-10.785-1.875-3.6875-6.0742-5.5625-10.07-4.4922-4 1.0664-6.7031 4.7891-6.4844 8.9219 0.21875 4.1328 3.2969 7.5469 7.3867 8.1875 0.55078 0.085937 0.92578 0.60156 0.83984 1.1523-0.085938 0.54688-0.59766 0.92578-1.1484 0.83984-5.0898-0.79688-8.9023-5.082-9.1055-10.23-0.20312-5.1445 3.2656-9.7148 8.2773-10.91 5.0078-1.1914 10.164 1.3242 12.305 6.0117 2.1406 4.6836 0.66406 10.23-3.5195 13.234-0.24219 0.1875-0.55469 0.25-0.85156 0.17969-1.3711-0.33984-2.4883-1.3242-2.9922-2.6406-2.2148-0.023437-4.3789-0.66016-6.2539-1.8359-1.1406-0.70703-1.8555-1.9297-1.9141-3.2656 0-2.1211 1.9258-3.6523 3.668-4.4883 2.1289-0.96094 4.4375-1.4453 6.7695-1.4219 0.30859 0 0.60156 0.14062 0.79297 0.38281 0.19141 0.24219 0.26172 0.55859 0.19141 0.85938l-1.4609 8.7578c0.089844 0.38281 0.28125 0.73437 0.54688 1.0234 0.20312 0.21484 0.44531 0.39453 0.71094 0.51953zm-6.6016-41.559h-17.199v5h17.199zm-18.211-2.0312h19.219c0.26953 0 0.52344 0.10938 0.71484 0.29688 0.19141 0.19141 0.29688 0.44922 0.29688 0.71875v7.0234-0.003906c0 0.26953-0.10938 0.52734-0.29688 0.71484-0.19141 0.19141-0.44531 0.29688-0.71484 0.29688h-19.219c-0.55859 0-1.0117-0.45313-1.0117-1.0117v-7.0195c0-0.55859 0.45312-1.0117 1.0117-1.0156zm0 15.633c-0.55859 0-1.0117-0.44922-1.0117-1.0078 0-0.55859 0.45312-1.0117 1.0117-1.0117h28.184c0.55859 0 1.0117 0.45312 1.0117 1.0117 0 0.55859-0.45312 1.0078-1.0117 1.0078zm0 5.1992v0.003906c-0.54688-0.019531-0.98047-0.46484-0.98047-1.0117s0.43359-0.99609 0.98047-1.0117h33.629c0.54688 0.015626 0.98047 0.46484 0.98047 1.0117s-0.43359 0.99219-0.98047 1.0117zm42.324-16.926-6.6797-6.6836v6.6797zm3.4531 22.609h11.852c0.26953 0 0.52734 0.10547 0.71484 0.29687 0.19141 0.19141 0.29688 0.44922 0.29688 0.71875v53.551-0.003906c0 0.55859-0.45312 1.0117-1.0117 1.0117h-76.633c-0.55859 0-1.0117-0.45312-1.0117-1.0117v-53.547c0-0.55859 0.45312-1.0117 1.0117-1.0117h11.852v-31.113c0.003906-0.90234 0.73438-1.6289 1.6367-1.6367h40.148c0.26953 0 0.53125 0.10938 0.72266 0.30078 1.1016 1.1172 10.047 9.9883 10.254 10.285 0.10938 0.16406 0.16797 0.35938 0.16797 0.55469zm0 9.9297 9.1406-7.9062h-9.1406zm-50.906 1.75v-42.402h38.75v9.1211c0 0.26953 0.10547 0.52734 0.29688 0.71875 0.1875 0.19141 0.44531 0.29688 0.71484 0.29688h9.1211v32.266l-20.434 17.68-2.3359-1.6328c-1-0.71484-2.3438-0.71484-3.3438 0l-2.3359 1.6328zm-11.164-9.6562 9.1406 7.9062v-7.9062zm51.398 38.027-31.582-0.003907-19.32 13.5h70.219l-19.32-13.5zm21.512 12.574v-49.406l-31.594 27.332zm-50.199-14.602 25.793 0.003906-12.379-8.6484c-0.3125-0.22266-0.72656-0.22266-1.0391 0l-12.379 8.6445zm7.1836-7.4766-31.59-27.328v49.406z" fill-rule="evenodd"/>
</svg>