<svg xmlns="http://www.w3.org/2000/svg" version="1.1" viewBox="-5.0 -10.0 110.0 135.0">
 <path d="m47.223 13.859c1.6797-1.1445 3.875-1.1445 5.5547 0l35.027 23.875c2.3555 1.6055 2.9023 4.8711 1.2148 7.1719l-1.5117 2.0625c-1.582 2.1523-4.5625 2.6758-6.7695 1.1719l-0.73828-0.50391v32.363c0 3.8672-3.1328 7-7 7h-46c-3.8672 0-7-3.1328-7-7v-32.363l-0.73828 0.50391c-2.207 1.5039-5.1875 0.98047-6.7695-1.1719l-1.5117-2.0625c-1.6875-2.3008-1.1406-5.5664 1.2148-7.1719zm4.4297 1.6523c-1-0.68359-2.3047-0.68359-3.3047 0l-35.027 23.875c-1.4102 0.96094-1.75 2.9414-0.72656 4.3359l1.5117 2.0625c0.94922 1.293 2.7188 1.5977 4.0312 0.70312l29.086-19.824c1.6797-1.1445 3.875-1.1445 5.5547 0l29.086 19.824c1.3125 0.89453 3.082 0.58984 4.0312-0.70312l1.5117-2.0625c1.0234-1.3945 0.68359-3.375-0.72656-4.3359zm-11.652 69.488h20v-25c0-1.6562-1.3438-3-3-3h-14c-1.6562 0-3 1.3438-3 3zm22 0v-25c0-2.7617-2.2383-5-5-5h-14c-2.7617 0-5 2.2383-5 5v25h-11c-2.7617 0-5-2.2383-5-5v-33.727l26.348-17.957c1-0.68359 2.3047-0.68359 3.3047 0l26.348 17.957v33.727c0 2.7617-2.2383 5-5 5z" fill-rule="evenodd"/>
</svg>