<svg xmlns="http://www.w3.org/2000/svg" version="1.1" viewBox="-5.0 -10.0 110.0 135.0">
 <path d="m35.441 80c-4.832 0-8.75-3.918-8.75-8.75v-41.117c0-4.832 3.918-8.75 8.75-8.75h17.059c2.0703 0 3.75-1.6797 3.75-3.75 0-2.0703-1.6797-3.75-3.75-3.75h-17.059c-8.9727 0-16.25 7.2734-16.25 16.25v41.117c0 8.9727 7.2773 16.25 16.25 16.25h17.059c2.0703 0 3.75-1.6797 3.75-3.75s-1.6797-3.75-3.75-3.75zm27.699-12.867c1.4648 1.4648 3.8398 1.4648 5.3047 0l13.789-13.789c0.70312-0.70312 1.0977-1.6562 1.0977-2.6523s-0.39453-1.9492-1.0977-2.6523l-13.789-13.789c-1.4648-1.4648-3.8398-1.4648-5.3047 0-1.4648 1.4609-1.4648 3.8359 0 5.3008l7.3906 7.3906h-26.863c-2.0703 0-3.75 1.6797-3.75 3.75 0 2.0703 1.6797 3.75 3.75 3.75h26.863l-7.3906 7.3906c-1.4648 1.4648-1.4648 3.8359 0 5.3008z" fill-rule="evenodd"/>
</svg>