<svg xmlns="http://www.w3.org/2000/svg" xmlns:xlink="http://www.w3.org/1999/xlink" version="1.1" x="0px" y="0px" viewBox="0 0 100 125" style="enable-background:new 0 0 100 100;" xml:space="preserve"><g><g><g><g><g><path d="M50.03,94.87c-6.94,0-13.82-1.61-20-4.69c-1.45-0.72-3.05-0.89-4.52-0.47l-12.84,3.67c-1.7,0.48-3.51-0.01-4.73-1.28       s-1.63-3.11-1.07-4.78l3.86-11.57c0.53-1.59,0.4-3.29-0.34-4.68C6.83,64.44,5.01,56.9,5.14,49.24       c0.39-23.83,20.1-43.62,43.92-44.1C61.2,4.9,72.67,9.42,81.35,17.9c8.68,8.48,13.48,19.84,13.52,31.97       c0.07,23.78-19.2,43.95-42.94,44.95C51.3,94.86,50.66,94.87,50.03,94.87z M27.14,85.48c1.59,0,3.19,0.38,4.68,1.12       c6.13,3.06,13.04,4.53,19.94,4.24c21.62-0.92,39.17-19.29,39.11-40.95c-0.03-11.05-4.4-21.39-12.31-29.12       C70.65,13.04,60.2,8.91,49.14,9.14c-21.7,0.45-39.65,18.47-40,40.17c-0.12,6.97,1.54,13.83,4.79,19.85       c1.27,2.35,1.49,5.21,0.62,7.84l-3.86,11.57c-0.12,0.37,0.05,0.63,0.17,0.75c0.12,0.12,0.37,0.31,0.74,0.2l12.84-3.67l0,0       C25.31,85.6,26.22,85.48,27.14,85.48z"/></g></g></g><g><g><g><path d="M70.5,41.68H29.5c-0.55,0-1-0.45-1-1s0.45-1,1-1H70.5c0.55,0,1,0.45,1,1S71.06,41.68,70.5,41.68z"/></g></g></g><g><g><g><path d="M70.5,52.86H29.5c-0.55,0-1-0.45-1-1s0.45-1,1-1H70.5c0.55,0,1,0.45,1,1S71.06,52.86,70.5,52.86z"/></g></g></g><g><g><g><path d="M70.5,64.05H29.5c-0.55,0-1-0.45-1-1s0.45-1,1-1H70.5c0.55,0,1,0.45,1,1S71.06,64.05,70.5,64.05z"/></g></g></g></g></g></svg>