<svg xmlns="http://www.w3.org/2000/svg" version="1.1" viewBox="-5.0 -10.0 110.0 135.0">
 <path d="m78.422 34.469c-1.9805 0-3.9258 0.35547-5.7617 1.0469-2.4766-12.008-13.188-20.984-25.73-20.984-12.234 0-22.652 8.293-25.508 20-3.1328 0.14453-7.6211 1.2656-11.102 4.2617-3.3867 2.918-5.1797 7.1094-5.1797 12.109 0 9.0625 7.3711 16.434 16.434 16.434h26.082v18.133c0 1.293 1.0508 2.3438 2.3438 2.3438s2.3438-1.0508 2.3438-2.3438v-18.133h26.078c9.0625 0 16.434-7.3711 16.434-16.434s-7.3711-16.434-16.434-16.434zm0 28.18h-26.078v-17.93l12.02 12.02c0.45703 0.45703 1.0586 0.6875 1.6562 0.6875 0.59766 0 1.1992-0.23047 1.6562-0.6875 0.91406-0.91406 0.91406-2.3984 0-3.3125l-16.02-16.02c-0.21875-0.21875-0.48047-0.39062-0.76953-0.51172-0.011719-0.003906-0.023438-0.007812-0.035157-0.011719-0.26172-0.10547-0.55078-0.16797-0.85156-0.16797s-0.58984 0.0625-0.85547 0.16797c-0.011719 0.003907-0.023437 0.007813-0.035156 0.011719-0.28906 0.11719-0.55078 0.29297-0.76953 0.51172l-16.02 16.02c-0.91406 0.91406-0.91406 2.3984 0 3.3125 0.91406 0.91406 2.3984 0.91406 3.3125 0l12.023-12.02v17.934l-26.078-0.003906c-6.4766 0-11.746-5.2695-11.746-11.746 0-3.6484 1.1953-6.5273 3.5508-8.5586 2.918-2.5195 6.8633-3.1406 8.8008-3.1406 0.32812 0 0.59766 0.019531 0.79688 0.046875 1.2656 0.20312 2.4531-0.67578 2.6602-1.9375 1.7188-10.484 10.676-18.094 21.297-18.094 11.254 0 20.707 8.793 21.527 20.02 0.058594 0.82422 0.55078 1.5586 1.293 1.9258 0.73828 0.36719 1.6211 0.32031 2.3164-0.12891 1.9062-1.2305 4.1055-1.8789 6.3594-1.8789 6.4766 0 11.746 5.2695 11.746 11.746-0.011719 6.4766-5.2812 11.746-11.758 11.746z"/>
</svg>