<svg xmlns="http://www.w3.org/2000/svg" version="1.1" viewBox="-5.0 -10.0 110.0 135.0">
 <path d="m66.973 22.133-8.0742-7.5859v6.0703c0 0.41406 0.17187 0.79297 0.44531 1.0703 0.27344 0.27344 0.65234 0.44531 1.0703 0.44531zm6.5273 23.176 7.8906-7.8906c1.6562-1.6562 3.7539-2.5977 5.793-2.7773 2.1523-0.1875 4.2578 0.46094 5.7891 1.9922s2.1797 3.6367 1.9922 5.7891c-0.17969 2.0391-1.1172 4.1367-2.7773 5.793l-18.691 18.691v22.828c0 1.0234-0.82812 1.8555-1.8555 1.8555l-61.199-0.003906c-1.4727 0-2.8164-0.57031-3.8008-1.4961-1.0117-0.94922-1.6406-2.2695-1.6406-3.7266v-72.727c0-1.457 0.62891-2.7773 1.6406-3.7266 0.98438-0.92188 2.3281-1.4961 3.8008-1.4961h46.605c0.53516 0 1.0195 0.22656 1.3594 0.59375l14.418 13.543c0.41406 0.33984 0.67969 0.85547 0.67969 1.4375v21.32zm-18.285 18.293 0.03125-0.035156c-0.011719 0.011719-0.019532 0.023438-0.03125 0.035156zm-0.11328 0.14453 0.023438-0.035156c-0.007812 0.011718-0.015625 0.023437-0.023438 0.035156zm0.13281 10.629 6.1719-2.1602-4.0156-4.0156-2.1602 6.1719zm30.379-24.82-5.5586-5.5586-20.812 20.812 5.5586 5.5586zm-2.9336-8.1797 5.5586 5.5586 1.3359-1.3359c1.0234-1.0234 1.5977-2.2812 1.7031-3.4922 0.097656-1.0938-0.20312-2.1328-0.92188-2.8477-0.71875-0.71875-1.7539-1.0156-2.8477-0.92187-1.207 0.10547-2.4688 0.68359-3.4922 1.7031zm-29.703 37.707 6.1445-2.1484 6.1523-2.1523c0.30859-0.082031 0.59766-0.24219 0.83594-0.48047l3.6836-3.6836v17.266l-59.352-0.003906c-0.50391 0-0.94922-0.18359-1.2656-0.48047-0.28906-0.26953-0.46484-0.63672-0.46484-1.0312l-0.003907-72.73c0-0.39844 0.17969-0.76172 0.46484-1.0312 0.31641-0.29688 0.76562-0.48047 1.2656-0.48047h44.75v8.4961c0 1.4375 0.58594 2.7461 1.5312 3.6914s2.25 1.5312 3.6914 1.5312h9.3828v23.176l-14.48 14.48c-0.011719 0.011719-0.023438 0.023438-0.03125 0.035156-0.011719 0.011719-0.019531 0.023438-0.03125 0.035156-0.011719 0.011719-0.019531 0.023438-0.03125 0.035157s-0.019531 0.023437-0.027344 0.035156c-0.011718 0.011719-0.019531 0.023437-0.027344 0.035156v0.003907c-0.007812 0.011718-0.019531 0.023437-0.027343 0.035156-0.007813 0.011718-0.015625 0.023437-0.023438 0.035156v0.003906h-0.003906l-0.003906 0.003906-0.019531 0.03125-0.007813 0.011719-0.019531 0.027344-0.007813 0.011719-0.019531 0.03125v0.003906h-0.003906l-0.003906 0.003906-0.019532 0.03125-0.007812 0.011719-0.015625 0.027344-0.007813 0.011719-0.015625 0.027343-0.007812 0.011719-0.011719 0.027344-0.007812 0.015625-0.011719 0.027343-0.007813 0.015626v0.003906l-0.007812 0.015625-0.003906 0.003906-0.011719 0.023437-0.003907 0.015626v0.003906l-0.011718 0.023437-0.003906 0.015625-0.003907 0.007813-0.007812 0.019531-0.003907 0.015625v0.003906l-0.007812 0.023438-0.003906 0.015625v0.003906l-0.007813 0.023438-0.003906 0.015624v0.003907l-0.007813 0.023437-3.9141 11.195h-31.699c-1.0234 0-1.8555 0.82812-1.8555 1.8555 0 1.0234 0.82813 1.8555 1.8555 1.8555h33.012c0.26562 0 0.52344-0.058594 0.75-0.16016zm-6.5117-19.547h-27.254c-1.0234 0-1.8555 0.82812-1.8555 1.8555 0 1.0234 0.82812 1.8555 1.8555 1.8555h27.254c1.0234 0 1.8555-0.82812 1.8555-1.8555 0-1.0234-0.82812-1.8555-1.8555-1.8555zm5.7578-15.996-33.008-0.003906c-1.0234 0-1.8555 0.82812-1.8555 1.8555 0 1.0234 0.82812 1.8555 1.8555 1.8555h33.012c1.0234 0 1.8555-0.82812 1.8555-1.8555 0-1.0234-0.82812-1.8555-1.8555-1.8555zm0-15.996-33.008-0.007813c-1.0234 0-1.8555 0.82812-1.8555 1.8555 0 1.0234 0.82812 1.8555 1.8555 1.8555h33.012c1.0234 0 1.8555-0.82812 1.8555-1.8555 0-1.0234-0.82812-1.8555-1.8555-1.8555z" fill-rule="evenodd"/>
</svg>